<svg data-v-fde0c5aa="" xmlns="http://www.w3.org/2000/svg" viewBox="0 0 300 300" class="iconLeft"><!----><defs data-v-fde0c5aa=""><!----></defs><rect data-v-fde0c5aa="" fill="#DF245B" x="0" y="0" width="300px" height="300px" class="logo-background-square"></rect><defs data-v-fde0c5aa=""><!----></defs><g data-v-fde0c5aa="" id="cef82838-79dd-4eef-b328-e87af1969bae" fill="#ffffff" transform="matrix(1.7778158695985924,0,0,1.7778158695985924,84.17400121407032,138.11530090749477)"><path d="M0.84 12.60L3.32 12.60L3.32 8.40C3.32 7.83 3.64 7.20 4.47 7.20C5.35 7.20 5.73 7.83 5.73 8.54L5.73 12.60L8.20 12.60L8.20 8.32C8.23 7.77 8.57 7.20 9.35 7.20C10.23 7.20 10.61 7.83 10.61 8.54L10.61 12.60L13.09 12.60L13.09 7.87C13.09 5.87 11.61 5.21 10.29 5.21C9.51 5.21 8.67 5.61 7.91 6.52C7.41 5.56 6.36 5.21 5.40 5.21C4.62 5.21 3.91 5.61 3.35 6.17L3.32 6.17L3.32 5.42L0.84 5.42ZM16.97 5.42L14.49 5.42L14.49 9.44C14.49 11.84 15.69 12.81 18.38 12.81C21.07 12.81 22.27 11.84 22.27 9.44L22.27 5.42L19.80 5.42L19.80 8.83C19.80 10.25 19.42 10.79 18.38 10.79C17.35 10.79 16.97 10.25 16.97 8.83ZM26.88 5.21C24.99 5.21 23.74 6.05 23.74 7.52C23.74 8.60 24.47 9.10 25.20 9.48C26.01 9.90 26.80 9.94 26.80 10.46C26.80 10.93 26.38 10.98 26.03 10.98C25.23 10.98 24.25 10.15 24.25 10.15L23.24 11.84C23.24 11.84 24.28 12.81 26.01 12.81C27.48 12.81 29.41 12.47 29.41 10.36C29.41 8.89 28.18 8.36 27.23 8.06C26.61 7.87 26.11 7.76 26.11 7.38C26.11 7.04 26.33 6.94 26.88 6.94C27.64 6.94 28.48 7.39 28.48 7.39L29.29 5.77C29.29 5.77 28.27 5.21 26.88 5.21ZM31.92 0.98C31.11 0.98 30.45 1.64 30.45 2.45C30.45 3.26 31.11 3.92 31.92 3.92C32.73 3.92 33.39 3.26 33.39 2.45C33.39 1.64 32.73 0.98 31.92 0.98ZM30.65 5.42L33.12 5.42L33.12 12.60L30.65 12.60ZM38.70 7.24C39.44 7.24 39.90 7.57 39.90 7.57L40.74 5.88C40.74 5.88 39.93 5.21 38.33 5.21C36.25 5.21 34.36 6.92 34.36 9.03C34.36 11.13 36.26 12.81 38.33 12.81C39.93 12.81 40.74 12.17 40.74 12.17L39.90 10.44C39.90 10.44 39.44 10.78 38.70 10.78C37.76 10.78 36.99 10.00 36.99 9.00C36.99 8.02 37.76 7.24 38.70 7.24ZM45.57 12.60L48.05 12.60L48.05 8.40C48.05 7.83 48.37 7.20 49.20 7.20C50.08 7.20 50.46 7.83 50.46 8.54L50.46 12.60L52.93 12.60L52.93 8.32C52.96 7.77 53.30 7.20 54.08 7.20C54.96 7.20 55.34 7.83 55.34 8.54L55.34 12.60L57.82 12.60L57.82 7.87C57.82 5.87 56.34 5.21 55.02 5.21C54.24 5.21 53.40 5.61 52.64 6.52C52.14 5.56 51.09 5.21 50.13 5.21C49.35 5.21 48.64 5.61 48.08 6.17L48.05 6.17L48.05 5.42L45.57 5.42ZM58.84 9.02C58.84 11.12 60.31 12.81 62.41 12.81C63.39 12.81 64.23 12.38 64.76 11.79L64.79 11.79L64.79 12.60L67.24 12.60L67.24 5.42L64.76 5.42L64.76 6.10C64.18 5.53 63.38 5.21 62.41 5.21C60.31 5.21 58.84 6.92 58.84 9.02ZM61.47 9.02C61.47 8.02 62.22 7.32 63.15 7.32C64.08 7.32 64.82 8.02 64.82 9.02C64.82 10.00 64.12 10.70 63.15 10.70C62.15 10.70 61.47 10.00 61.47 9.02ZM77.13 5.42L73.91 5.42L71.40 7.92L71.40 0.56L68.92 0.56L68.92 12.60L71.40 12.60L71.40 9.73L74.27 12.60L77.46 12.60L73.71 8.85ZM85.23 9.35C85.25 9.27 85.25 9.11 85.25 9.02C85.25 6.50 83.58 5.21 81.40 5.21C79.23 5.21 77.45 6.92 77.45 9.02C77.45 11.10 79.23 12.81 81.40 12.81C82.99 12.81 84.31 12.29 85.12 10.93L83.33 10.04C82.73 10.68 82.38 10.84 81.58 10.84C80.95 10.84 80.02 10.46 80.02 9.35ZM80.09 7.98C80.14 7.32 80.61 6.82 81.47 6.82C82.19 6.82 82.71 7.22 82.82 7.98ZM86.38 12.60L88.86 12.60L88.86 8.82C88.86 8.64 89.04 7.36 90.33 7.36C91.15 7.36 91.62 7.76 91.62 7.76L92.65 5.66C92.65 5.66 92.01 5.21 91.08 5.21C89.67 5.21 88.89 6.45 88.89 6.45L88.86 6.45L88.86 5.42L86.38 5.42ZM96.36 5.21C94.47 5.21 93.23 6.05 93.23 7.52C93.23 8.60 93.95 9.10 94.68 9.48C95.49 9.90 96.28 9.94 96.28 10.46C96.28 10.93 95.86 10.98 95.51 10.98C94.71 10.98 93.73 10.15 93.73 10.15L92.72 11.84C92.72 11.84 93.76 12.81 95.49 12.81C96.96 12.81 98.90 12.47 98.90 10.36C98.90 8.89 97.66 8.36 96.71 8.06C96.10 7.87 95.59 7.76 95.59 7.38C95.59 7.04 95.82 6.94 96.36 6.94C97.12 6.94 97.96 7.39 97.96 7.39L98.77 5.77C98.77 5.77 97.75 5.21 96.36 5.21Z"></path></g><defs data-v-fde0c5aa=""><!----></defs><g data-v-fde0c5aa="" id="8d7927b3-4da9-4838-84dd-1253981dd6a7" stroke="none" fill="#092D54" transform="matrix(2.0417104127421335,0,0,2.0417104127421335,40,133.66631669806293)"><path d="M16 0C6 0 4 2 4 2v8.188c-.3-.1-.6-.188-1-.188-1.7 0-3 1.3-3 3s1.3 3 3 3 3-1.3 3-3V5.094c1.5-.5 4-.9 8-1v5.219c-.3-.2-.6-.313-1-.313-1.7 0-3 1.3-3 3s1.3 3 3 3 3-1.3 3-3V0z"></path></g><!----></svg>